HIERARCHY
ROOT Hips
{
 OFFSET 0.000000 0.000000 0.000000
 CHANNELS 6 Xposition Yposition Zposition Yrotation Xrotation Zrotation
 JOINT Chest
 {
  OFFSET 0.000000 9.585900 0.002600
  CHANNELS 3 Yrotation Xrotation Zrotation
  JOINT Chest2
  {
   OFFSET 0.000000 9.601200 -0.005300
   CHANNELS 3 Yrotation Xrotation Zrotation
   JOINT Chest3
   {
    OFFSET 0.000000 9.561800 0.000000
    CHANNELS 3 Yrotation Xrotation Zrotation
    JOINT Chest4
    {
     OFFSET 0.000000 9.552100 0.000000
     CHANNELS 3 Yrotation Xrotation Zrotation
     JOINT Neck
     {
      OFFSET 0.000000 14.453000 0.000000
      CHANNELS 3 Yrotation Xrotation Zrotation
      JOINT Head
      {
       OFFSET 0.000000 8.936500 -0.011300
       CHANNELS 3 Yrotation Xrotation Zrotation
       End Site
       {
        OFFSET 0.000000 17.073600 -0.006000
       }
      }
     }
     JOINT RightCollar
     {
      OFFSET -2.921100 9.558500 0.000000
      CHANNELS 3 Yrotation Xrotation Zrotation
      JOINT RightShoulder
      {
       OFFSET -13.519700 0.000000 0.000000
       CHANNELS 3 Yrotation Xrotation Zrotation
       JOINT RightElbow
       {
        OFFSET 0.000000 -29.696600 0.000000
        CHANNELS 3 Yrotation Xrotation Zrotation
        JOINT RightWrist
        {
         OFFSET 0.000000 -24.004700 0.000000
         CHANNELS 3 Yrotation Xrotation Zrotation
         End Site
         {
          OFFSET 0.000000 -17.728500 0.000000
         }
        }
       }
      }
     }
     JOINT LeftCollar
     {
      OFFSET 2.921100 9.558500 0.000000
      CHANNELS 3 Yrotation Xrotation Zrotation
      JOINT LeftShoulder
      {
       OFFSET 13.519700 0.000000 0.000000
       CHANNELS 3 Yrotation Xrotation Zrotation
       JOINT LeftElbow
       {
        OFFSET 0.000000 -29.696600 0.000000
        CHANNELS 3 Yrotation Xrotation Zrotation
        JOINT LeftWrist
        {
         OFFSET 0.000000 -24.004700 0.000000
         CHANNELS 3 Yrotation Xrotation Zrotation
         End Site
         {
          OFFSET 0.000000 -17.728500 0.000000
         }
        }
       }
      }
     }
    }
   }
  }
 }
 JOINT RightHip
 {
  OFFSET -7.771700 -0.012900 -0.001300
  CHANNELS 3 Yrotation Xrotation Zrotation
  JOINT RightKnee
  {
   OFFSET 0.000000 -40.869800 0.001200
   CHANNELS 3 Yrotation Xrotation Zrotation
   JOINT RightAnkle
   {
    OFFSET 0.000000 -39.717900 0.002100
    CHANNELS 3 Yrotation Xrotation Zrotation
    JOINT RightToe
    {
     OFFSET 0.000000 -4.965400 11.033500
     CHANNELS 3 Yrotation Xrotation Zrotation
     End Site
     {
      OFFSET 0.000000 -1.423100 5.872300
     }
    }
   }
  }
 }
 JOINT LeftHip
 {
  OFFSET 7.771700 -0.012900 -0.001300
  CHANNELS 3 Yrotation Xrotation Zrotation
  JOINT LeftKnee
  {
   OFFSET 0.000000 -40.869800 0.001200
   CHANNELS 3 Yrotation Xrotation Zrotation
   JOINT LeftAnkle
   {
    OFFSET 0.000000 -39.717900 0.002100
    CHANNELS 3 Yrotation Xrotation Zrotation
    JOINT LeftToe
    {
     OFFSET 0.000000 -4.965400 11.033500
     CHANNELS 3 Yrotation Xrotation Zrotation
     End Site
     {
      OFFSET 0.000000 -1.423100 5.872300
     }
    }
   }
  }
 }
}
MOTION
Frames: 5
Frame Time: 0.008333
0.000000 85.388000 0.000000 0.000000 -5.767877 0.000000 0.000000 11.653817 0.000000 0.000000 -5.885947 0.000000 0.000000 -0.000000 0.000000 0.000000 -0.000000 0.000000 0.000000 12.528835 0.000000 0.000000 0.711642 0.000000 0.000000 -0.000000 0.000000 0.000000 0.000000 -90.000000 0.000000 -2.309062 0.000000 0.000000 2.309062 0.000000 0.000000 -0.000000 0.000000 0.000000 -0.000000 90.000000 0.000000 -2.309062 0.000000 0.000000 2.309062 0.000000 0.000000 8.520406 0.000000 0.000000 1.905762 0.000000 -0.000000 -4.658285 0.000000 0.000000 -0.000000 0.000000 0.000000 8.520406 0.000000 0.000000 1.905762 0.000000 -0.000000 -4.658285 0.000000 0.000000 -0.000000 0.000000
-233.075394 57.805334 -79.619875 159.853366 -7.286187 -0.188039 3.320579 8.151646 0.947326 0.157887 0.430114 0.003709 0.275148 0.735130 0.005810 2.853356 7.693041 0.246590 1.691530 18.629159 -1.052082 3.437610 -1.149214 -2.468965 2.791865 8.566822 1.407051 0.502574 -8.193003 -9.735473 -67.569762 -81.777117 94.948148 -3.150366 5.111648 -31.389927 -5.764457 8.803732 -2.458663 12.451069 -5.221585 2.496819 107.146245 -82.455565 -135.611397 -0.402434 5.154411 16.082951 -12.296245 -64.246687 8.111191 -40.126891 69.676533 -43.297594 -5.530741 -6.903084 1.457002 -0.277505 0.800310 -0.141435 2.373848 -67.226931 15.775970 41.921347 66.169024 34.415964 -17.892096 -9.239636 4.970848 -0.173389 -0.934868 -0.070118
-233.072004 57.804608 -79.618652 159.854280 -7.289249 -0.196492 3.320721 8.142215 0.955353 0.158245 0.429870 0.003644 0.274046 0.732257 0.004235 2.857308 7.700098 0.248251 1.697640 18.627990 -1.042532 3.443822 -1.135007 -2.447840 2.790413 8.565417 1.410171 0.501130 -8.184814 -9.735598 -67.641987 -81.782622 95.013466 -3.159296 5.110076 -31.384165 -5.756095 8.798069 -2.457248 12.464549 -5.219334 2.500592 107.064941 -82.456341 -135.546912 -0.403150 5.150160 16.102795 -12.321872 -64.242532 8.136730 -40.116496 69.680794 -43.284516 -5.548592 -6.899376 1.454837 -0.279554 0.795478 -0.139698 2.344791 -67.225079 15.808184 41.954899 66.152482 34.454564 -17.929943 -9.227060 4.951713 -0.153563 -0.936361 -0.062600
-233.067213 57.804028 -79.619170 159.839494 -7.306403 -0.205416 3.333431 8.127439 0.962154 0.159388 0.445621 0.005263 0.275404 0.731593 0.005101 2.860903 7.707479 0.249735 1.701742 18.626043 -1.033085 3.449724 -1.120638 -2.426572 2.790217 8.565891 1.414638 0.492986 -8.185273 -9.732842 -67.662663 -81.788282 95.032878 -3.165256 5.111844 -31.377985 -5.751095 8.792670 -2.458133 12.484994 -5.214878 2.499151 107.105357 -82.457956 -135.587818 -0.405115 5.151111 16.109096 -12.324499 -64.223424 8.155073 -40.110489 69.682955 -43.272555 -5.551767 -6.896206 1.444064 -0.273153 0.791458 -0.134080 2.330090 -67.208831 15.840960 41.975539 66.146819 34.480913 -17.928443 -9.222860 4.937325 -0.156169 -0.938368 -0.058801
-233.063487 57.803062 -79.617744 159.830725 -7.311773 -0.212149 3.342730 8.117627 0.968892 0.158508 0.443946 0.004952 0.276531 0.739878 0.005984 2.863570 7.677841 0.243783 1.704500 18.657776 -1.020225 3.453799 -1.112571 -2.403811 2.787198 8.594241 1.426543 0.490459 -8.190482 -9.732439 -67.608978 -81.787347 94.980779 -3.168031 5.114413 -31.374249 -5.730933 8.792931 -2.452719 12.478819 -5.191511 2.506951 107.288447 -82.451212 -135.733238 -0.399648 5.165862 16.097721 -12.340118 -64.217030 8.172570 -40.090680 69.689516 -43.246799 -5.541276 -6.895155 1.434689 -0.282063 0.789024 -0.134858 2.317837 -67.208086 15.865049 41.989705 66.144564 34.500627 -17.922183 -9.206816 4.920090 -0.151135 -0.945227 -0.052155
